<svg width="262" height="41" viewBox="0 0 262 41" fill="none" xmlns="http://www.w3.org/2000/svg">
<path d="M131 3.84344C137.181 5.13853 143.737 7.03537 150.488 9.0917C150.853 8.73871 150.971 8.74112 151.663 8.30165C162.941 1.10664 182.096 1.62147 191.581 5.28363C201.351 9.05764 200.018 15.4119 196.631 18.4616C194.997 19.934 192.712 20.9111 190.232 21.5112C203.943 24.9628 217.354 27.1316 231.674 25.3983C241.597 24.1985 253.448 20.8445 257.749 14.7642C263.756 6.26725 247.237 0.256649 237.877 2.73973C233.41 3.92605 231.321 6.03516 226.842 8.74404C224.335 10.3125 222.142 10.2962 221.922 10.1346C221.823 10.1346 221.792 10.122 221.792 10.1978C220.857 9.76742 220.573 9.64111 220.573 9.09177C220.573 5.0419 242.145 -2.17249 254.832 4.22509C271.904 14.5886 243.277 31.2076 205.62 25.2876C200.324 24.4555 194.73 23.2809 188.839 21.764C184.905 22.4492 180.731 22.1236 176.824 21.448C173.946 24.2032 167.843 25.3982 163.068 25.3982C151.626 25.3982 145.438 20.4025 145.438 16.518C145.438 14.7276 146.309 12.9264 148.05 11.1141C142.847 8.72877 137.032 6.4902 131 4.97523C124.968 6.49012 119.153 8.72869 113.95 11.1141C115.691 12.9264 116.561 14.7276 116.561 16.518C116.561 20.4025 110.374 25.3982 98.9314 25.3982C94.1572 25.3982 88.054 24.2032 85.1755 21.448C81.2691 22.1236 77.0945 22.4492 73.1609 21.764C67.2699 23.2809 61.6761 24.4555 56.3796 25.2876C18.7222 31.2076 -9.90428 14.5886 7.16766 4.22495C19.8548 -2.17263 41.4267 5.04175 41.4267 9.09163C41.4267 9.64096 41.1431 9.76728 40.2078 10.1976C40.2078 10.1219 40.1767 10.1344 40.0772 10.1344C39.8576 10.2961 37.6648 10.3124 35.1582 8.7439C30.6791 6.03501 28.5893 3.92598 24.123 2.73959C14.7632 0.256432 -1.75639 6.2671 4.25111 14.7641C8.55157 20.8443 20.4032 24.1983 30.3262 25.3981C44.6457 27.1315 58.0567 24.9627 71.7679 21.5111C69.2878 20.911 67.0026 19.9339 65.3689 18.4615C61.9815 15.4118 60.6485 9.05756 70.4185 5.28349C79.9035 1.62125 99.0585 1.10649 110.336 8.3015C111.028 8.74097 111.147 8.73856 111.512 9.09155C118.263 7.03537 124.819 5.13853 131 3.84344ZM131 7.27001C144.547 14.0267 145.894 28.5848 131 39.3164C116.106 28.5849 117.453 14.0267 131 7.27001ZM131 31.5965C138.19 23.5224 140.536 14.2964 131 8.71444C121.464 14.2964 123.81 23.5224 131 31.5965ZM148.616 10.6402C148.91 10.3206 149.223 10.0423 149.835 9.53409C143.283 7.61884 140.362 6.87528 137.733 6.24751C140.855 7.17922 146.883 9.83409 148.616 10.6402ZM124.267 6.24751C121.638 6.87528 118.717 7.61884 112.165 9.53409C112.777 10.0423 113.091 10.3206 113.384 10.6402C115.117 9.83409 121.145 7.17922 124.267 6.24751ZM176.041 21.2584C163.708 18.8482 150.544 11.9763 148.79 11.4618C147.337 12.9626 146.352 14.5729 146.352 16.3917C146.352 21.5018 156.454 26.2887 167.966 24.4819C170.878 24.0246 173.95 22.9651 176.041 21.2584ZM94.0343 24.4818C105.546 26.2887 115.648 21.5017 115.648 16.3916C115.648 14.5728 114.663 12.9625 113.21 11.4618C111.456 11.9762 98.2922 18.8482 85.9592 21.2583C88.0497 22.9651 91.1218 24.0246 94.0343 24.4818ZM176.519 20.7844C177.116 20.1146 177.546 19.3441 177.608 18.5406C164.75 14.5813 162.064 13.2454 150.619 9.78687C149.891 10.315 149.593 10.5565 149.269 10.893C157.091 14.7357 167.434 19.0082 176.519 20.7844ZM112.731 10.8931C112.407 10.5565 112.109 10.3151 111.381 9.78694C99.9362 13.2455 97.2503 14.5814 84.3922 18.5407C84.4539 19.3441 84.8837 20.1147 85.4805 20.7845C94.5662 19.0082 104.908 14.7357 112.731 10.8931ZM178.522 18.0982C181.946 19.1759 185.461 20.1918 189.013 21.1636C194.89 19.9999 197.197 17.3826 197.197 15.6016C197.197 11.2457 187.574 7.92578 181.874 6.61095C168.496 3.52971 155.599 5.23444 151.315 9.34455C161.896 12.4591 164.515 13.7522 177.608 17.877C177.509 16.663 177.081 15.6443 175.823 14.8274C174.288 13.8337 171.808 14.2495 169.293 13.1841C168.275 12.7526 168.348 12.091 168.923 11.762C170.76 10.7083 178.522 13.3335 178.522 18.0982ZM93.0765 11.762C93.6516 12.0909 93.7253 12.7526 92.7065 13.1841C90.1916 14.2496 87.7124 13.8337 86.1768 14.8274C84.9189 15.6443 84.4908 16.663 84.3921 17.877C97.4852 13.7522 100.104 12.4591 110.685 9.34455C106.401 5.23444 93.5037 3.52971 80.126 6.61095C74.4261 7.92578 64.8032 11.2457 64.8032 15.6016C64.8032 17.3826 67.1098 19.9999 72.987 21.1636C76.539 20.1918 80.0543 19.1759 83.4781 18.0982C83.4781 13.3335 91.24 10.7083 93.0765 11.762ZM177.39 20.8793C181.01 21.6215 184.531 21.7374 187.446 21.3848C184.41 20.5378 183.294 20.187 178.435 18.7618C178.289 19.5415 177.941 20.2472 177.39 20.8793ZM83.565 18.7618C78.7063 20.187 77.5896 20.5378 74.5541 21.3848C77.4688 21.7374 80.9899 21.6215 84.6098 20.8793C84.0588 20.2472 83.7106 19.5415 83.565 18.7618Z" fill="white"/>
</svg>
