<svg width="202" height="71" viewBox="0 0 202 71" fill="none" xmlns="http://www.w3.org/2000/svg">
<path d="M20.9235 28.808C19.8568 28.808 18.6942 28.6587 17.4355 28.36C16.1768 28.0613 14.8328 27.6027 13.4035 26.984C12.3368 26.5147 11.2702 26.024 10.2035 25.512C9.15817 25 8.10217 24.4987 7.03551 24.008C5.32884 25.3307 3.76084 25.992 2.33151 25.992C1.94751 25.992 1.60617 25.8747 1.30751 25.64C1.07284 25.448 0.955505 25.192 0.955505 24.872C0.955505 24.04 1.48884 23.4107 2.55551 22.984C3.04617 22.792 3.59017 22.696 4.18751 22.696C4.91284 22.696 5.69151 22.8347 6.52351 23.112C10.6622 18.7173 14.4808 15.0267 17.9795 12.04C21.4995 9.03201 24.6782 6.71734 27.5155 5.09601C27.0888 5.11734 26.5022 5.09601 25.7555 5.03201C25.0088 4.94668 24.1128 4.80801 23.0675 4.61601C21.9795 4.42401 20.9982 4.27468 20.1235 4.16801C19.2702 4.06134 18.5342 4.00801 17.9155 4.00801C15.5902 4.00801 13.4355 4.49868 11.4515 5.48001C10.0435 6.16268 8.93417 6.96268 8.12351 7.88001C7.39817 8.66934 7.03551 9.43734 7.03551 10.184C7.03551 11.4 7.87817 12.008 9.56351 12.008C10.9928 12.008 12.7742 11.4747 14.9075 10.408C15.8248 9.93868 16.7102 9.40534 17.5635 8.80801C18.4382 8.18934 19.3022 7.50668 20.1555 6.76001C20.2835 6.65334 20.4222 6.58934 20.5715 6.56801C20.6995 6.52534 20.7635 6.55734 20.7635 6.66401C20.7635 6.70668 20.7315 6.74934 20.6675 6.79201C19.0248 8.49868 17.1902 9.87468 15.1635 10.92C14.1182 11.4533 13.1262 11.8587 12.1875 12.136C11.2488 12.4133 10.3422 12.552 9.46751 12.552C8.08084 12.552 7.05684 12.2213 6.39551 11.56C5.81951 10.984 5.53151 10.2587 5.53151 9.38401C5.53151 8.33868 5.95817 7.26134 6.81151 6.15201C7.68617 5.02134 8.89151 4.14668 10.4275 3.52801C12.3902 2.76001 14.3528 2.37601 16.3155 2.37601C17.1262 2.37601 18.0222 2.46134 19.0035 2.63201C20.0062 2.78134 21.1048 3.00534 22.2995 3.30401C24.8382 3.96534 26.5875 4.32801 27.5475 4.39201C27.6542 4.41334 27.7608 4.42401 27.8675 4.42401C27.9742 4.42401 28.0702 4.42401 28.1555 4.42401C28.6248 4.42401 28.9128 4.37068 29.0195 4.26401C30.2782 3.24001 31.3235 2.72801 32.1555 2.72801C32.7742 2.72801 33.0835 2.96268 33.0835 3.43201C33.0835 4.05068 32.6142 4.47734 31.6755 4.71201C31.3555 4.79734 30.9608 4.84001 30.4915 4.84001C30.3208 4.84001 30.1395 4.84001 29.9475 4.84001C29.7555 4.81867 29.5528 4.79734 29.3395 4.77601L29.2115 4.80801C27.7395 5.61867 26.0542 6.77068 24.1555 8.26401C22.2782 9.73601 20.1768 11.5387 17.8515 13.672C17.5955 13.9067 16.6248 14.8347 14.9395 16.456C13.2755 18.0773 10.9075 20.3813 7.83551 23.368C13.5742 25.48 17.7662 26.536 20.4115 26.536C21.4568 26.536 22.3422 26.408 23.0675 26.152C24.0702 25.7893 24.9662 25.1813 25.7555 24.328C26.5875 23.4533 27.0035 22.6107 27.0035 21.8C27.0035 20.8613 26.3955 20.1893 25.1795 19.784C24.6035 19.6133 23.9955 19.528 23.3555 19.528C22.8008 19.528 22.2248 19.592 21.6275 19.72C21.0515 19.8267 20.4542 19.9973 19.8355 20.232C18.2142 20.8507 16.7528 21.8107 15.4515 23.112C15.3662 23.1973 15.2702 23.24 15.1635 23.24C14.9715 23.24 14.8755 23.176 14.8755 23.048C14.8755 22.984 14.8862 22.9413 14.9075 22.92C16.1448 21.384 17.6595 20.264 19.4515 19.56C20.5395 19.1333 21.6808 18.92 22.8755 18.92C23.7288 18.92 24.5395 19.0373 25.3075 19.272C27.3555 19.9333 28.3795 21.1813 28.3795 23.016C28.3795 24.1893 27.9315 25.3093 27.0355 26.376C26.0968 27.5067 24.8915 28.232 23.4195 28.552C23.0142 28.6373 22.5982 28.7013 22.1715 28.744C21.7662 28.7867 21.3502 28.808 20.9235 28.808Z" fill="white"/>
<path d="M37.1423 25.064C36.6729 25.064 36.2889 24.9253 35.9903 24.648C35.5636 24.2853 35.3503 23.6773 35.3503 22.824C35.3503 22.2693 35.4463 21.64 35.6383 20.936C34.9129 22.152 34.1556 23.144 33.3663 23.912C32.5556 24.6587 31.8303 25.032 31.1903 25.032C30.6356 25.032 30.1983 24.7867 29.8783 24.296C29.5369 23.8267 29.3663 23.176 29.3663 22.344C29.3663 20.3173 30.2729 18.2267 32.0863 16.072C32.3849 15.7093 32.7263 15.3787 33.1103 15.08C33.4943 14.7813 33.9103 14.5147 34.3583 14.28C35.2756 13.8107 36.1609 13.576 37.0143 13.576C38.0596 13.576 38.8916 13.9173 39.5103 14.6C39.6596 14.7493 39.7343 14.92 39.7343 15.112C39.7343 15.4747 39.5423 15.6133 39.1583 15.528C38.9449 14.76 38.4436 14.376 37.6543 14.376C36.7583 14.376 35.7023 15.0053 34.4863 16.264C34.0596 16.7333 33.6543 17.224 33.2703 17.736C32.8863 18.2267 32.5236 18.7493 32.1823 19.304C31.2649 20.84 30.8063 22.088 30.8063 23.048C30.8063 23.7733 31.0836 24.136 31.6383 24.136C32.2569 24.136 32.9716 23.6667 33.7823 22.728C34.2303 22.216 34.6889 21.5867 35.1583 20.84C35.6276 20.0933 36.1183 19.2293 36.6303 18.248C36.8436 17.8427 37.0356 17.512 37.2063 17.256C37.3769 17 37.5156 16.808 37.6223 16.68C37.9636 16.3387 38.3689 16.1787 38.8383 16.2L39.4783 16.296C39.7556 16.36 39.9903 16.3707 40.1823 16.328C39.9903 16.52 39.7556 16.8293 39.4783 17.256C39.2223 17.6613 38.9236 18.1947 38.5823 18.856C38.2196 19.56 37.9209 20.2 37.6863 20.776C37.4516 21.352 37.2916 21.864 37.2063 22.312C37.1636 22.5253 37.1316 22.728 37.1103 22.92C37.0889 23.0907 37.0783 23.2507 37.0783 23.4C37.0783 23.9547 37.2276 24.232 37.5263 24.232C37.9529 24.232 38.5396 23.7627 39.2863 22.824L39.4143 22.664L39.8623 22.952L39.7343 23.144C38.8596 24.424 37.9956 25.064 37.1423 25.064Z" fill="white"/>
<path d="M39.875 25.224C40.6003 23.56 41.635 21.1813 42.979 18.088C44.3443 14.9733 46.0297 11.1547 48.035 6.63201C48.0563 6.56801 48.067 6.50401 48.067 6.44001C48.0883 6.37601 48.099 6.31201 48.099 6.24801C48.099 5.94934 47.971 5.62934 47.715 5.28801H49.443C50.0403 5.28801 50.339 5.42667 50.339 5.70401C50.339 5.85334 50.275 6.07734 50.147 6.37601L44.515 19.304C44.9203 18.728 45.7843 17.8533 47.107 16.68C48.387 15.5493 49.3043 14.8987 49.859 14.728C50.0937 14.664 50.3177 14.632 50.531 14.632C51.3417 14.632 51.747 15.0587 51.747 15.912C51.747 16.1253 51.6937 16.392 51.587 16.712C51.459 17.1173 51.171 17.5013 50.723 17.864C50.275 18.248 49.859 18.44 49.475 18.44C49.155 18.44 48.9203 18.3013 48.771 18.024C49.0057 17.6613 49.123 17.3947 49.123 17.224C49.123 17.0747 49.0483 16.9467 48.899 16.84C48.771 16.776 48.6217 16.744 48.451 16.744C48.0457 16.744 47.6617 16.968 47.299 17.416C46.787 18.056 46.531 18.952 46.531 20.104C46.531 21.064 46.7657 21.9387 47.235 22.728C47.7897 23.6667 48.4937 24.136 49.347 24.136C50.2003 24.136 51.0217 23.5813 51.811 22.472L52.259 22.856C51.1283 24.4347 49.8803 25.224 48.515 25.224C48.4297 25.224 48.3337 25.224 48.227 25.224C48.1203 25.224 48.0137 25.2133 47.907 25.192C47.3097 25.128 46.7337 24.7867 46.179 24.168C45.475 23.4 45.123 22.4293 45.123 21.256C45.123 20.3813 45.3683 19.528 45.859 18.696C44.4297 20.0613 43.171 22.0133 42.083 24.552C41.955 24.872 41.5817 25.032 40.963 25.032C40.7283 25.032 40.3657 25.096 39.875 25.224Z" fill="white"/>
<path d="M51.0513 20.552C50.9233 20.5947 50.7846 20.5307 50.6353 20.36C50.4646 20.168 50.3579 19.976 50.3153 19.784C50.2086 19.4 50.3366 19.1653 50.6993 19.08C51.1259 18.9733 51.9153 18.8027 53.0673 18.568C54.2193 18.312 55.7233 17.9813 57.5793 17.576C58.0059 17.4693 58.2619 17.576 58.3473 17.896C58.4113 18.1307 58.2619 18.2907 57.8993 18.376C57.1099 18.568 56.1393 18.8453 54.9873 19.208C53.8566 19.5707 52.5446 20.0187 51.0513 20.552ZM53.4833 25C52.8646 25 52.5553 24.6907 52.5553 24.072C52.5553 23.688 52.6833 23.1653 52.9393 22.504L59.1473 6.63201C59.1899 6.56801 59.2113 6.50401 59.2113 6.44001C59.2113 6.37601 59.2113 6.32268 59.2113 6.28001C59.2113 5.96001 59.0833 5.62934 58.8273 5.28801H60.5553C61.1526 5.28801 61.4513 5.42667 61.4513 5.70401C61.4513 5.83201 61.3873 6.05601 61.2593 6.37601L55.0513 22.184C54.7739 22.8667 54.6353 23.4747 54.6353 24.008C54.6353 24.4987 54.7846 24.8293 55.0833 25H53.4833Z" fill="white"/>
<path d="M64.986 25.064C64.5167 25.064 64.1327 24.9253 63.834 24.648C63.4073 24.2853 63.194 23.6773 63.194 22.824C63.194 22.2693 63.29 21.64 63.482 20.936C62.7567 22.152 61.9993 23.144 61.21 23.912C60.3993 24.6587 59.674 25.032 59.034 25.032C58.4793 25.032 58.042 24.7867 57.722 24.296C57.3807 23.8267 57.21 23.176 57.21 22.344C57.21 20.3173 58.1167 18.2267 59.93 16.072C60.2287 15.7093 60.57 15.3787 60.954 15.08C61.338 14.7813 61.754 14.5147 62.202 14.28C63.1193 13.8107 64.0047 13.576 64.858 13.576C65.9033 13.576 66.7353 13.9173 67.354 14.6C67.5033 14.7493 67.578 14.92 67.578 15.112C67.578 15.4747 67.386 15.6133 67.002 15.528C66.7887 14.76 66.2873 14.376 65.498 14.376C64.602 14.376 63.546 15.0053 62.33 16.264C61.9033 16.7333 61.498 17.224 61.114 17.736C60.73 18.2267 60.3673 18.7493 60.026 19.304C59.1087 20.84 58.65 22.088 58.65 23.048C58.65 23.7733 58.9273 24.136 59.482 24.136C60.1007 24.136 60.8153 23.6667 61.626 22.728C62.074 22.216 62.5327 21.5867 63.002 20.84C63.4713 20.0933 63.962 19.2293 64.474 18.248C64.6873 17.8427 64.8793 17.512 65.05 17.256C65.2207 17 65.3593 16.808 65.466 16.68C65.8073 16.3387 66.2127 16.1787 66.682 16.2L67.322 16.296C67.5993 16.36 67.834 16.3707 68.026 16.328C67.834 16.52 67.5993 16.8293 67.322 17.256C67.066 17.6613 66.7673 18.1947 66.426 18.856C66.0633 19.56 65.7647 20.2 65.53 20.776C65.2953 21.352 65.1353 21.864 65.05 22.312C65.0073 22.5253 64.9753 22.728 64.954 22.92C64.9327 23.0907 64.922 23.2507 64.922 23.4C64.922 23.9547 65.0713 24.232 65.37 24.232C65.7967 24.232 66.3833 23.7627 67.13 22.824L67.258 22.664L67.706 22.952L67.578 23.144C66.7033 24.424 65.8393 25.064 64.986 25.064Z" fill="white"/>
<path d="M77.1588 25C75.9214 25 75.3028 24.2107 75.3028 22.632C75.3028 21.9493 75.4201 21.3093 75.6548 20.712C74.0548 23.528 72.5188 24.936 71.0468 24.936C70.9614 24.936 70.8761 24.936 70.7908 24.936C70.7054 24.9147 70.6094 24.8933 70.5028 24.872C69.4361 24.5733 68.9028 23.7627 68.9028 22.44C68.9028 21.4587 69.1694 20.3707 69.7028 19.176C69.9588 18.6 70.2361 18.056 70.5348 17.544C70.8548 17.0107 71.2068 16.52 71.5908 16.072C72.9348 14.4507 74.4708 13.64 76.1988 13.64C76.9668 13.64 77.6814 13.832 78.3428 14.216C78.7054 13.512 79.1321 12.5307 79.6228 11.272C80.1348 9.99201 80.7214 8.44534 81.3828 6.63201C81.6388 5.92801 81.9054 5.46934 82.1828 5.25601C82.5028 5.04268 82.9294 4.94667 83.4628 4.96801L84.1348 5.06401C84.2841 5.08534 84.4121 5.10667 84.5188 5.12801C84.6254 5.12801 84.7214 5.11734 84.8068 5.09601C84.5934 5.33068 84.1988 5.99201 83.6228 7.08001C83.0468 8.14668 82.3001 9.65067 81.3828 11.592C80.4441 13.5547 79.6441 15.304 78.9828 16.84C78.3428 18.376 77.8308 19.6773 77.4468 20.744C77.1268 21.64 76.9668 22.4187 76.9668 23.08C76.9668 23.8053 77.2121 24.168 77.7028 24.168C78.3428 24.168 79.0254 23.5813 79.7508 22.408L79.8788 22.248L80.3908 22.504L80.2628 22.664C79.2814 24.2213 78.2468 25 77.1588 25ZM71.3668 24.04C72.0708 24.04 72.9241 23.3467 73.9268 21.96C74.9934 20.4453 76.4121 18.0347 78.1828 14.728C77.9268 14.472 77.6174 14.344 77.2548 14.344C76.3801 14.344 75.3561 14.9307 74.1828 16.104C73.0734 17.192 72.1454 18.44 71.3988 19.848C70.8014 20.9573 70.5028 21.928 70.5028 22.76C70.5028 23.6133 70.7908 24.04 71.3668 24.04Z" fill="white"/>
<path d="M88.4475 26.856C86.6982 26.856 85.7595 26.152 85.6315 24.744C85.6102 24.1467 85.7702 23.6133 86.1115 23.144C86.4742 22.6533 86.9328 22.408 87.4875 22.408C87.8928 22.408 88.2448 22.5787 88.5435 22.92C88.8208 23.24 88.9595 23.5813 88.9595 23.944C88.9595 24.9467 88.4902 25.448 87.5515 25.448C87.3168 25.448 87.0928 25.3947 86.8795 25.288C86.6875 25.2027 86.5382 25.0533 86.4315 24.84C86.5595 25.608 87.1995 25.992 88.3515 25.992C88.6075 25.992 88.8422 25.96 89.0555 25.896C90.8902 25.4053 92.4368 24.3493 93.6955 22.728C94.2502 22.024 94.8688 21.0213 95.5515 19.72C96.2342 18.4187 96.9915 16.84 97.8235 14.984L102.048 5.60801C102.261 5.13868 102.496 4.72268 102.752 4.36001C103.029 3.97601 103.317 3.61334 103.616 3.27201C101.013 3.18668 98.3568 3.59201 95.6475 4.48801C92.7888 5.44801 90.6982 6.74934 89.3755 8.39201C88.7568 9.18134 88.4475 9.90668 88.4475 10.568C88.4475 11.912 89.4182 12.584 91.3595 12.584C93.7488 12.584 95.6902 11.6453 97.1835 9.76801C97.5462 9.32001 97.8875 8.78668 98.2075 8.16801C98.5488 7.52801 98.8582 6.78134 99.1355 5.92801C99.1995 5.77868 99.2848 5.70401 99.3915 5.70401C99.5622 5.70401 99.6155 5.82134 99.5515 6.05601C99.4662 6.33334 99.3808 6.61067 99.2955 6.88801C99.2315 7.16534 99.1462 7.43201 99.0395 7.68801C98.8688 8.20001 98.6662 8.68001 98.4315 9.12801C98.1968 9.55468 97.9408 9.94934 97.6635 10.312C96.2342 12.3173 94.2075 13.32 91.5835 13.32C90.3675 13.32 89.4182 13 88.7355 12.36C88.0315 11.72 87.6795 10.92 87.6795 9.96001C87.6795 9.10667 87.9782 8.23201 88.5755 7.33601C89.5782 5.82134 91.5408 4.61601 94.4635 3.72001C95.7435 3.33601 97.0662 3.04801 98.4315 2.85601C99.8182 2.64268 101.248 2.53601 102.72 2.53601C102.997 2.53601 103.264 2.53601 103.52 2.53601C103.797 2.53601 104.064 2.54668 104.32 2.56801C105.621 1.43734 106.976 0.872009 108.384 0.872009C108.938 0.872009 109.504 0.989342 110.08 1.22401C110.186 1.26667 110.24 1.35201 110.24 1.48001C110.24 1.73601 110.165 1.83201 110.016 1.76801C109.632 1.57601 109.205 1.48001 108.736 1.48001C107.69 1.48001 106.698 1.89601 105.76 2.72801C107.509 2.74934 108.874 3.12267 109.856 3.84801C111.242 4.87201 111.872 6.07734 111.744 7.46401C111.552 9.64001 110.197 11.4107 107.68 12.776C105.76 13.8427 103.776 14.376 101.728 14.376C101.578 14.376 101.418 14.376 101.248 14.376C101.098 14.376 100.938 14.3653 100.768 14.344C100.618 14.8133 100.405 15.3787 100.128 16.04C99.8502 16.68 99.5195 17.4053 99.1355 18.216C98.2608 20.072 96.9488 21.8533 95.1995 23.56C92.9382 25.7573 90.6875 26.856 88.4475 26.856ZM101.696 13.672C103.146 13.672 104.522 13.224 105.824 12.328C107.04 11.496 108.032 10.3653 108.8 8.93601C109.141 8.29601 109.312 7.67734 109.312 7.08001C109.312 6.01334 108.885 5.12801 108.032 4.42401C107.178 3.74134 106.165 3.44268 104.992 3.52801C104.629 3.99734 104.234 4.70134 103.808 5.64001C103.381 6.55734 102.933 7.70934 102.464 9.09601C102.208 9.84268 101.962 10.6 101.728 11.368C101.493 12.136 101.258 12.8933 101.024 13.64C101.13 13.6613 101.237 13.672 101.344 13.672C101.472 13.672 101.589 13.672 101.696 13.672Z" fill="white"/>
<path d="M109.051 25C107.494 25 106.715 24.0507 106.715 22.152C106.715 21.2133 106.939 20.2213 107.387 19.176C108.027 17.6613 108.934 16.3813 110.107 15.336C111.259 14.312 112.347 13.8 113.371 13.8C114.95 13.8 115.739 14.728 115.739 16.584C115.739 17.544 115.505 18.5573 115.035 19.624C114.481 20.904 113.681 22.0667 112.635 23.112C111.334 24.3707 110.139 25 109.051 25ZM109.563 24.296C110.054 24.296 110.577 24.0933 111.131 23.688C111.835 23.176 112.635 22.1093 113.531 20.488C114.513 18.7387 115.003 17.3307 115.003 16.264C115.003 15.304 114.598 14.824 113.787 14.824C113.147 14.824 112.422 15.2293 111.611 16.04C110.822 16.8293 110.15 17.832 109.595 19.048C108.849 20.648 108.475 21.928 108.475 22.888C108.475 23.8267 108.838 24.296 109.563 24.296Z" fill="white"/>
<path d="M115.069 33.352C113.939 33.352 113.096 32.9787 112.541 32.232C112.307 31.8693 112.189 31.3893 112.189 30.792C112.189 30.3227 112.253 29.9813 112.381 29.768L112.957 29.736C112.851 30.12 112.797 30.4507 112.797 30.728C112.797 31.88 113.469 32.456 114.813 32.456C116.051 32.456 117.309 31.464 118.589 29.48C118.952 28.9253 119.315 28.2533 119.677 27.464C120.061 26.696 120.424 25.8213 120.765 24.84C121 24.2 121.224 23.56 121.437 22.92C121.672 22.2587 121.907 21.5973 122.141 20.936C121.373 22.1733 120.605 23.1653 119.837 23.912C119.048 24.6587 118.323 25.032 117.661 25.032C117.128 25.032 116.701 24.7867 116.381 24.296C116.04 23.8267 115.869 23.176 115.869 22.344C115.869 20.3387 116.765 18.248 118.557 16.072C118.856 15.7093 119.197 15.3787 119.581 15.08C119.965 14.7813 120.381 14.5147 120.829 14.28C121.747 13.8107 122.632 13.576 123.485 13.576C124.531 13.576 125.363 13.9173 125.981 14.6C126.131 14.7493 126.205 14.92 126.205 15.112C126.205 15.4747 126.013 15.6133 125.629 15.528C125.416 14.76 124.925 14.376 124.157 14.376C123.261 14.376 122.205 15.0053 120.989 16.264C120.093 17.2027 119.315 18.216 118.653 19.304C117.757 20.7973 117.309 22.0453 117.309 23.048C117.309 23.7733 117.576 24.136 118.109 24.136C118.749 24.136 119.475 23.6667 120.285 22.728C121.16 21.6827 122.109 20.1893 123.133 18.248C123.539 17.48 123.859 16.9573 124.093 16.68C124.435 16.3387 124.84 16.1787 125.309 16.2L125.981 16.296C126.237 16.36 126.461 16.3707 126.653 16.328C126.504 16.4773 126.355 16.6373 126.205 16.808C126.056 16.9787 125.928 17.1493 125.821 17.32C125.629 17.6187 125.416 18.0027 125.181 18.472C124.947 18.92 124.712 19.4533 124.477 20.072C124.221 20.7333 123.976 21.3733 123.741 21.992C123.528 22.6107 123.304 23.1973 123.069 23.752C122.536 25.1173 122.045 26.3013 121.597 27.304C121.149 28.3067 120.755 29.1387 120.413 29.8C120.179 30.2693 119.88 30.696 119.517 31.08C119.176 31.464 118.781 31.8267 118.333 32.168C117.288 32.9573 116.2 33.352 115.069 33.352Z" fill="white"/>
<path d="M125.914 25.224C126.319 24.2 126.852 22.92 127.514 21.384C128.196 19.848 128.964 18.0987 129.818 16.136C129.988 15.7093 130.148 15.368 130.298 15.112C130.468 14.856 130.618 14.6533 130.746 14.504C131.023 14.184 131.396 14.056 131.866 14.12L132.538 14.216C132.687 14.2373 132.815 14.2587 132.922 14.28C133.05 14.28 133.156 14.2693 133.242 14.248C132.815 14.4613 132.314 15.0693 131.738 16.072C131.183 17.0533 130.564 18.3973 129.882 20.104C130.116 19.8053 130.415 19.4107 130.778 18.92C131.14 18.408 131.599 17.8213 132.154 17.16C132.772 16.4347 133.412 15.7627 134.074 15.144C134.735 14.5253 135.375 14.216 135.994 14.216C136.484 14.216 136.836 14.376 137.05 14.696C137.263 15.016 137.37 15.3787 137.37 15.784C137.37 16.2747 137.178 16.712 136.794 17.096C136.41 17.48 136.036 17.672 135.674 17.672C135.524 17.672 135.364 17.64 135.194 17.576C135.044 17.512 134.97 17.416 134.97 17.288C134.97 17.1813 134.991 17.0853 135.034 17C135.076 16.8933 135.098 16.776 135.098 16.648C135.098 16.328 134.948 16.168 134.65 16.168C134.543 16.168 134.394 16.2 134.202 16.264C134.031 16.3067 133.796 16.4773 133.498 16.776C132.9 17.3307 132.25 18.0027 131.546 18.792C130.863 19.56 130.212 20.424 129.594 21.384C128.996 22.344 128.506 23.4 128.122 24.552C128.015 24.872 127.695 25.0427 127.162 25.064C126.436 25.1067 126.02 25.16 125.914 25.224Z" fill="white"/>
<path d="M135.063 25L136.119 23.144C136.567 22.7173 137.815 21.3413 139.863 19.016H137.943L138.711 18.568H140.247C140.866 17.8853 141.421 17.2773 141.911 16.744C142.402 16.1893 142.818 15.7307 143.159 15.368C142.69 15.368 142.114 15.3893 141.431 15.432C140.749 15.4747 139.959 15.5387 139.063 15.624C138.85 15.7733 138.594 15.9333 138.295 16.104C138.274 16.104 138.253 16.1147 138.231 16.136C138.21 16.136 138.178 16.136 138.135 16.136C138.05 16.136 137.954 16.104 137.847 16.04L139.831 13.832L145.911 13.864L144.631 15.08C144.503 15.1867 144.162 15.5387 143.607 16.136C143.053 16.712 142.274 17.5227 141.271 18.568H143.927L143.159 19.016H140.855C140.685 19.208 140.503 19.4 140.311 19.592C140.141 19.7627 139.97 19.9333 139.799 20.104C139.586 20.3173 139.255 20.68 138.807 21.192C138.381 21.6827 137.826 22.3333 137.143 23.144C137.442 23.144 138.018 23.176 138.871 23.24C139.746 23.304 140.386 23.336 140.791 23.336C141.751 23.336 142.349 23.2187 142.583 22.984L143.095 22.472L143.511 22.792L141.527 24.968L135.063 25Z" fill="white"/>
<path d="M147.812 25.128C146.981 25.128 146.266 24.8613 145.669 24.328C145.349 24.0293 145.114 23.688 144.965 23.304C144.837 22.8987 144.773 22.44 144.773 21.928C144.773 19.9653 145.583 18.0133 147.204 16.072C148.57 14.4293 149.989 13.608 151.461 13.608C151.951 13.608 152.367 13.736 152.709 13.992C153.071 14.2907 153.253 14.6747 153.253 15.144C153.253 16.3173 152.474 17.4907 150.917 18.664C150.426 19.0267 149.775 19.3467 148.965 19.624C148.069 19.9227 147.418 20.072 147.013 20.072C146.714 20.7973 146.564 21.5653 146.564 22.376C146.564 23.7627 147.077 24.456 148.101 24.456C149.445 24.456 150.703 23.5813 151.877 21.832L152.005 21.64L152.549 21.864L152.452 22.056C151.919 23.1227 151.247 23.9013 150.437 24.392C149.626 24.8827 148.751 25.128 147.812 25.128ZM147.204 19.528C147.567 19.528 148.069 19.4107 148.709 19.176C149.071 19.0267 149.412 18.8667 149.732 18.696C150.074 18.5253 150.373 18.3333 150.629 18.12C151.802 17.1387 152.389 16.104 152.389 15.016C152.389 14.5467 152.218 14.312 151.877 14.312C151.279 14.312 150.373 15.048 149.157 16.52C148.538 17.2667 147.887 18.2693 147.204 19.528Z" fill="white"/>
<path d="M156.281 25.064C154.447 25.064 153.529 24.232 153.529 22.568C153.529 22.2053 153.615 21.704 153.785 21.064C153.977 20.424 154.212 19.7093 154.489 18.92C154.788 18.1093 155.108 17.2987 155.449 16.488C155.791 15.656 156.111 14.8773 156.409 14.152L159.577 6.63201C159.62 6.46134 159.641 6.34401 159.641 6.28001C159.641 5.96001 159.513 5.62934 159.257 5.28801H161.017C161.593 5.28801 161.881 5.42667 161.881 5.70401C161.881 5.83201 161.817 6.05601 161.689 6.37601C161.007 7.99734 160.153 10.0347 159.129 12.488C158.105 14.92 156.921 17.768 155.577 21.032C155.279 21.8 155.129 22.4507 155.129 22.984C155.129 23.9867 155.492 24.488 156.217 24.488C156.964 24.488 157.924 23.7947 159.097 22.408C159.588 21.8107 160.036 21.1813 160.441 20.52C160.868 19.8587 161.22 19.1653 161.497 18.44C161.839 17.608 162.009 16.84 162.009 16.136C162.009 15.5173 161.86 15.0907 161.561 14.856C161.284 14.6 160.857 14.472 160.281 14.472H160.121C159.78 14.472 159.609 14.3653 159.609 14.152C159.609 13.9173 159.823 13.8 160.249 13.8C160.313 13.8 160.388 13.8 160.473 13.8C160.559 13.8 160.644 13.8107 160.729 13.832C162.521 14.088 163.417 15.208 163.417 17.192C163.417 18.7493 162.895 20.2853 161.849 21.8C160.356 23.976 158.5 25.064 156.281 25.064Z" fill="white"/>
<path d="M166.301 25C164.744 25 163.965 24.0507 163.965 22.152C163.965 21.2133 164.189 20.2213 164.637 19.176C165.277 17.6613 166.184 16.3813 167.357 15.336C168.509 14.312 169.597 13.8 170.621 13.8C172.2 13.8 172.989 14.728 172.989 16.584C172.989 17.544 172.755 18.5573 172.285 19.624C171.731 20.904 170.931 22.0667 169.885 23.112C168.584 24.3707 167.389 25 166.301 25ZM166.813 24.296C167.304 24.296 167.827 24.0933 168.381 23.688C169.085 23.176 169.885 22.1093 170.781 20.488C171.763 18.7387 172.253 17.3307 172.253 16.264C172.253 15.304 171.848 14.824 171.037 14.824C170.397 14.824 169.672 15.2293 168.861 16.04C168.072 16.8293 167.4 17.832 166.845 19.048C166.099 20.648 165.725 21.928 165.725 22.888C165.725 23.8267 166.088 24.296 166.813 24.296Z" fill="white"/>
<path d="M181.695 25.064C180.159 25.064 179.391 24.0933 179.391 22.152C179.391 21.6187 179.455 21.128 179.583 20.68C178.73 22.2373 178.197 23.1547 177.983 23.432C177.194 24.5413 176.415 25.064 175.647 25C174.133 24.8293 173.375 23.9013 173.375 22.216C173.375 21.5333 173.61 20.552 174.079 19.272C174.57 17.9707 175.274 16.3493 176.191 14.408C176.405 13.9387 176.821 13.704 177.439 13.704L179.359 13.736C178.591 14.312 177.909 15.208 177.311 16.424C176.629 17.832 176.106 19.0587 175.743 20.104C175.381 21.128 175.199 21.9707 175.199 22.632C175.199 23.6133 175.551 24.104 176.255 24.104C177.151 24.104 178.271 22.7493 179.615 20.04C180.042 19.1653 180.458 18.28 180.863 17.384C181.269 16.4667 181.674 15.56 182.079 14.664C182.314 14.216 182.719 13.992 183.295 13.992H185.247C184.949 14.1627 184.522 14.5573 183.967 15.176C183.711 15.6027 183.434 16.104 183.135 16.68C182.858 17.2347 182.549 17.8533 182.207 18.536C181.375 20.264 180.959 21.768 180.959 23.048C180.959 23.9653 181.301 24.424 181.983 24.424C183.562 24.424 185.087 22.568 186.559 18.856C186.261 18.152 186.111 17.5013 186.111 16.904C186.111 16.4773 186.175 16.0613 186.303 15.656C186.538 14.8667 186.869 14.2693 187.295 13.864C187.679 13.48 188.053 13.288 188.415 13.288C188.778 13.288 188.959 13.4587 188.959 13.8L188.799 14.376C187.946 17.2773 187.146 19.4533 186.399 20.904C184.991 23.6773 183.423 25.064 181.695 25.064Z" fill="white"/>
<path d="M187.984 33.352C186.832 33.352 185.978 32.9787 185.424 32.232C185.189 31.8693 185.072 31.3893 185.072 30.792C185.072 30.3227 185.136 29.9813 185.264 29.768L185.872 29.736C185.744 30.0773 185.68 30.408 185.68 30.728C185.68 31.88 186.352 32.456 187.696 32.456C188.869 32.456 190.085 31.5387 191.344 29.704C191.813 29.0213 192.293 28.2 192.784 27.24C193.274 26.28 193.765 25.1813 194.256 23.944C194.597 23.1333 194.917 22.3227 195.216 21.512C195.536 20.7013 195.856 19.8907 196.176 19.08C195.621 20.0613 195.152 20.8613 194.768 21.48C194.405 22.0987 194.138 22.5253 193.968 22.76C192.858 24.2533 191.77 25 190.704 25C189.509 25 188.912 24.2213 188.912 22.664C188.912 21.64 189.146 20.552 189.616 19.4C190.298 17.736 191.002 16.168 191.728 14.696C191.962 14.248 192.368 14.024 192.944 14.024H194.64C194.042 14.4507 193.413 15.3467 192.752 16.712C191.258 19.72 190.512 21.864 190.512 23.144C190.512 23.848 190.768 24.2 191.28 24.2C192.261 24.2 193.509 22.8667 195.024 20.2C195.13 19.9867 195.418 19.4213 195.888 18.504C196.357 17.5653 196.986 16.2853 197.776 14.664C198.01 14.216 198.416 13.992 198.992 13.992H201.04C200.762 14.2053 200.378 14.5893 199.888 15.144C199.717 15.4213 199.504 15.784 199.248 16.232C199.013 16.68 198.757 17.224 198.48 17.864C198.138 18.696 197.69 19.8373 197.136 21.288C196.581 22.7173 195.866 24.4453 194.992 26.472C194.544 27.5387 194.096 28.4453 193.648 29.192C193.221 29.96 192.826 30.5787 192.464 31.048C191.226 32.584 189.733 33.352 187.984 33.352Z" fill="white"/>
<path d="M63.0589 64.944C60.6269 64.944 58.7069 64.5173 57.2989 63.664C55.9122 62.7893 55.2189 61.648 55.2189 60.24C55.2189 58.6827 55.9869 57.2213 57.5229 55.856C59.1655 54.4053 61.3202 53.424 63.9869 52.912C64.3495 52.848 64.7335 52.7947 65.1389 52.752C65.5442 52.7093 65.9495 52.688 66.3549 52.688C68.8295 52.688 70.5042 53.2853 71.3789 54.48C71.4642 54.5867 71.5069 54.7253 71.5069 54.896C71.5069 55.2373 71.4109 55.2907 71.2189 55.056C70.4509 53.968 68.7762 53.424 66.1949 53.424C65.3842 53.424 64.6589 53.488 64.0189 53.616C61.7789 54.0427 59.9975 54.8853 58.6749 56.144C57.4162 57.3387 56.7869 58.608 56.7869 59.952C56.7869 61.232 57.3629 62.256 58.5149 63.024C59.6455 63.792 61.1815 64.176 63.1229 64.176C64.9575 64.176 66.6536 63.952 68.2109 63.504C69.7682 63.0773 71.1975 62.4693 72.4989 61.68C74.6322 60.3787 75.6989 58.6507 75.6989 56.496C75.6989 54.0213 74.1522 51.792 71.0589 49.808C70.2696 49.296 69.6082 48.848 69.0749 48.464C68.5415 48.0587 68.1255 47.7173 67.8269 47.44C66.6962 46.352 66.1309 45.2 66.1309 43.984C66.1309 43.664 66.1629 43.3653 66.2269 43.088C66.5255 41.7013 67.4535 40.5813 69.0109 39.728C70.4402 38.9387 71.9869 38.544 73.6509 38.544C75.5495 38.544 76.9895 38.8747 77.9709 39.536C78.6749 40.0053 79.0269 40.72 79.0269 41.68C79.0269 42.2987 78.8455 42.8747 78.4829 43.408C78.1415 43.92 77.6935 44.176 77.1389 44.176C76.7335 44.176 76.3709 44.016 76.0509 43.696C75.7735 43.4187 75.6349 43.088 75.6349 42.704C75.6349 41.68 76.1362 41.168 77.1389 41.168C77.7362 41.168 78.0989 41.36 78.2269 41.744C78.3336 41.168 78.1095 40.6667 77.5549 40.24C76.6802 39.5573 75.5389 39.216 74.1309 39.216C72.6589 39.216 71.3149 39.632 70.0989 40.464C68.7976 41.3387 68.1469 42.352 68.1469 43.504C68.1469 44.9973 69.5122 46.5333 72.2429 48.112C76.0615 50.288 77.9709 52.8053 77.9709 55.664C77.9709 56.9227 77.5656 58.1387 76.7549 59.312C75.9442 60.5067 74.8669 61.488 73.5229 62.256C70.4509 64.048 66.9629 64.944 63.0589 64.944Z" fill="white"/>
<path d="M78.4226 62L79.4786 60.144C79.9266 59.7173 81.1746 58.3413 83.2226 56.016H81.3026L82.0706 55.568H83.6066C84.2253 54.8853 84.78 54.2773 85.2706 53.744C85.7613 53.1893 86.1773 52.7307 86.5186 52.368C86.0493 52.368 85.4733 52.3893 84.7906 52.432C84.108 52.4747 83.3186 52.5387 82.4226 52.624C82.2093 52.7733 81.9533 52.9333 81.6546 53.104C81.6333 53.104 81.612 53.1147 81.5906 53.136C81.5693 53.136 81.5373 53.136 81.4946 53.136C81.4093 53.136 81.3133 53.104 81.2066 53.04L83.1906 50.832L89.2706 50.864L87.9906 52.08C87.8626 52.1867 87.5213 52.5387 86.9666 53.136C86.412 53.712 85.6333 54.5227 84.6306 55.568H87.2866L86.5186 56.016H84.2146C84.044 56.208 83.8626 56.4 83.6706 56.592C83.5 56.7627 83.3293 56.9333 83.1586 57.104C82.9453 57.3173 82.6146 57.68 82.1666 58.192C81.74 58.6827 81.1853 59.3333 80.5026 60.144C80.8013 60.144 81.3773 60.176 82.2306 60.24C83.1053 60.304 83.7453 60.336 84.1506 60.336C85.1106 60.336 85.708 60.2187 85.9426 59.984L86.4546 59.472L86.8706 59.792L84.8866 61.968L78.4226 62Z" fill="white"/>
<path d="M87.8119 70.352C86.6599 70.352 85.8065 69.9787 85.2519 69.232C85.0172 68.8693 84.8999 68.3893 84.8999 67.792C84.8999 67.3227 84.9639 66.9813 85.0919 66.768L85.6999 66.736C85.5719 67.0773 85.5079 67.408 85.5079 67.728C85.5079 68.88 86.1799 69.456 87.5239 69.456C88.6972 69.456 89.9132 68.5387 91.1719 66.704C91.6412 66.0213 92.1212 65.2 92.6119 64.24C93.1025 63.28 93.5932 62.1813 94.0839 60.944C94.4252 60.1333 94.7452 59.3227 95.0439 58.512C95.3639 57.7013 95.6839 56.8907 96.0039 56.08C95.4492 57.0613 94.9799 57.8613 94.5959 58.48C94.2332 59.0987 93.9665 59.5253 93.7959 59.76C92.6865 61.2533 91.5985 62 90.5319 62C89.3372 62 88.7399 61.2213 88.7399 59.664C88.7399 58.64 88.9745 57.552 89.4439 56.4C90.1265 54.736 90.8305 53.168 91.5559 51.696C91.7905 51.248 92.1959 51.024 92.7719 51.024H94.4679C93.8705 51.4507 93.2412 52.3467 92.5799 53.712C91.0865 56.72 90.3399 58.864 90.3399 60.144C90.3399 60.848 90.5959 61.2 91.1079 61.2C92.0892 61.2 93.3372 59.8667 94.8519 57.2C94.9585 56.9867 95.2465 56.4213 95.7159 55.504C96.1852 54.5653 96.8145 53.2853 97.6039 51.664C97.8385 51.216 98.2439 50.992 98.8199 50.992H100.868C100.591 51.2053 100.207 51.5893 99.7159 52.144C99.5452 52.4213 99.3319 52.784 99.0759 53.232C98.8412 53.68 98.5852 54.224 98.3079 54.864C97.9666 55.696 97.5185 56.8373 96.9639 58.288C96.4092 59.7173 95.6945 61.4453 94.8199 63.472C94.3719 64.5387 93.9239 65.4453 93.4759 66.192C93.0492 66.96 92.6545 67.5787 92.2919 68.048C91.0545 69.584 89.5612 70.352 87.8119 70.352Z" fill="white"/>
<path d="M98.9606 62.224C99.3873 61.1787 99.9206 59.888 100.561 58.352C101.201 56.816 101.979 55.0453 102.897 53.04C103.089 52.6133 103.27 52.2613 103.441 51.984C103.611 51.7067 103.771 51.4933 103.921 51.344C104.219 51.0453 104.603 50.896 105.073 50.896C105.115 50.896 105.19 50.896 105.297 50.896C105.403 50.896 105.553 50.9173 105.745 50.96C106.043 50.9813 106.267 50.9813 106.417 50.96C105.627 51.4293 104.443 53.4987 102.865 57.168C103.099 56.8693 103.398 56.496 103.761 56.048C104.123 55.5787 104.593 55.0667 105.169 54.512C105.766 53.936 106.257 53.488 106.641 53.168C107.025 52.848 107.291 52.6347 107.441 52.528C108.379 51.824 109.073 51.472 109.521 51.472C110.139 51.472 110.449 51.7707 110.449 52.368C110.449 52.56 110.406 52.7413 110.321 52.912C110.065 53.4027 109.734 54.0213 109.329 54.768C108.945 55.5147 108.497 56.3893 107.985 57.392C109.009 56.112 109.894 55.1413 110.641 54.48C111.025 54.1387 111.451 53.808 111.921 53.488C112.411 53.168 112.934 52.848 113.489 52.528C114.705 51.824 115.622 51.472 116.241 51.472C116.39 51.472 116.497 51.4827 116.561 51.504C116.219 52.1013 115.899 52.6773 115.601 53.232C115.323 53.7867 115.057 54.3093 114.801 54.8C114.203 55.9733 113.734 56.976 113.393 57.808C113.051 58.64 112.827 59.2907 112.721 59.76C112.699 59.9093 112.678 60.048 112.657 60.176C112.657 60.304 112.657 60.4213 112.657 60.528C112.657 61.0827 112.859 61.36 113.265 61.36C113.926 61.36 114.715 60.688 115.633 59.344L116.081 59.664C114.993 61.3067 113.905 62.128 112.817 62.128C111.473 62.128 110.801 61.4347 110.801 60.048C110.801 58.896 111.483 57.2213 112.849 55.024C113.062 54.6827 113.169 54.3947 113.169 54.16C113.169 53.904 113.062 53.776 112.849 53.776C112.614 53.776 112.305 53.904 111.921 54.16C111.537 54.3947 111.099 54.736 110.609 55.184C110.203 55.568 109.777 56.0267 109.329 56.56C108.902 57.0933 108.443 57.7013 107.953 58.384C106.886 59.9413 106.257 61.1467 106.065 62C105.702 62 105.425 61.8293 105.233 61.488C105.083 61.1893 105.009 60.8907 105.009 60.592C105.009 60.1653 105.158 59.6 105.457 58.896C105.755 58.192 106.171 57.3387 106.705 56.336C107.323 55.2267 107.633 54.4267 107.633 53.936C107.633 53.7227 107.547 53.616 107.377 53.616C107.035 53.616 106.278 54.1493 105.105 55.216C104.806 55.4933 104.486 55.8453 104.145 56.272C103.825 56.6773 103.483 57.1573 103.121 57.712C102.289 58.9493 101.649 60.1867 101.201 61.424C101.073 61.744 100.742 61.936 100.209 62C99.526 62.064 99.11 62.1387 98.9606 62.224Z" fill="white"/>
<path d="M124.658 62.064C124.189 62.064 123.805 61.9253 123.506 61.648C123.079 61.2853 122.866 60.6773 122.866 59.824C122.866 59.2693 122.962 58.64 123.154 57.936C122.429 59.152 121.671 60.144 120.882 60.912C120.071 61.6587 119.346 62.032 118.706 62.032C118.151 62.032 117.714 61.7867 117.394 61.296C117.053 60.8267 116.882 60.176 116.882 59.344C116.882 57.3173 117.789 55.2267 119.602 53.072C119.901 52.7093 120.242 52.3787 120.626 52.08C121.01 51.7813 121.426 51.5147 121.874 51.28C122.791 50.8107 123.677 50.576 124.53 50.576C125.575 50.576 126.407 50.9173 127.026 51.6C127.175 51.7493 127.25 51.92 127.25 52.112C127.25 52.4747 127.058 52.6133 126.674 52.528C126.461 51.76 125.959 51.376 125.17 51.376C124.274 51.376 123.218 52.0053 122.002 53.264C121.575 53.7333 121.17 54.224 120.786 54.736C120.402 55.2267 120.039 55.7493 119.698 56.304C118.781 57.84 118.322 59.088 118.322 60.048C118.322 60.7733 118.599 61.136 119.154 61.136C119.773 61.136 120.487 60.6667 121.298 59.728C121.746 59.216 122.205 58.5867 122.674 57.84C123.143 57.0933 123.634 56.2293 124.146 55.248C124.359 54.8427 124.551 54.512 124.722 54.256C124.893 54 125.031 53.808 125.138 53.68C125.479 53.3387 125.885 53.1787 126.354 53.2L126.994 53.296C127.271 53.36 127.506 53.3707 127.698 53.328C127.506 53.52 127.271 53.8293 126.994 54.256C126.738 54.6613 126.439 55.1947 126.098 55.856C125.735 56.56 125.437 57.2 125.202 57.776C124.967 58.352 124.807 58.864 124.722 59.312C124.679 59.5253 124.647 59.728 124.626 59.92C124.605 60.0907 124.594 60.2507 124.594 60.4C124.594 60.9547 124.743 61.232 125.042 61.232C125.469 61.232 126.055 60.7627 126.802 59.824L126.93 59.664L127.378 59.952L127.25 60.144C126.375 61.424 125.511 62.064 124.658 62.064Z" fill="white"/>
<path d="M129.343 62C128.724 62 128.415 61.6907 128.415 61.072C128.415 60.688 128.543 60.1653 128.799 59.504L135.007 43.632C135.049 43.568 135.071 43.504 135.071 43.44C135.071 43.376 135.071 43.3227 135.071 43.28C135.071 42.96 134.943 42.6293 134.687 42.288H136.415C137.012 42.288 137.311 42.4267 137.311 42.704C137.311 42.832 137.247 43.056 137.119 43.376L130.911 59.184C130.633 59.8667 130.495 60.4747 130.495 61.008C130.495 61.4987 130.644 61.8293 130.943 62H129.343Z" fill="white"/>
<path d="M141.72 62.064C141.251 62.064 140.867 61.9253 140.568 61.648C140.142 61.2853 139.928 60.6773 139.928 59.824C139.928 59.2693 140.024 58.64 140.216 57.936C139.491 59.152 138.734 60.144 137.944 60.912C137.134 61.6587 136.408 62.032 135.768 62.032C135.214 62.032 134.776 61.7867 134.456 61.296C134.115 60.8267 133.944 60.176 133.944 59.344C133.944 57.3173 134.851 55.2267 136.664 53.072C136.963 52.7093 137.304 52.3787 137.688 52.08C138.072 51.7813 138.488 51.5147 138.936 51.28C139.854 50.8107 140.739 50.576 141.592 50.576C142.638 50.576 143.47 50.9173 144.088 51.6C144.238 51.7493 144.312 51.92 144.312 52.112C144.312 52.4747 144.12 52.6133 143.736 52.528C143.523 51.76 143.022 51.376 142.232 51.376C141.336 51.376 140.28 52.0053 139.064 53.264C138.638 53.7333 138.232 54.224 137.848 54.736C137.464 55.2267 137.102 55.7493 136.76 56.304C135.843 57.84 135.384 59.088 135.384 60.048C135.384 60.7733 135.662 61.136 136.216 61.136C136.835 61.136 137.55 60.6667 138.36 59.728C138.808 59.216 139.267 58.5867 139.736 57.84C140.206 57.0933 140.696 56.2293 141.208 55.248C141.422 54.8427 141.614 54.512 141.784 54.256C141.955 54 142.094 53.808 142.2 53.68C142.542 53.3387 142.947 53.1787 143.416 53.2L144.056 53.296C144.334 53.36 144.568 53.3707 144.76 53.328C144.568 53.52 144.334 53.8293 144.056 54.256C143.8 54.6613 143.502 55.1947 143.16 55.856C142.798 56.56 142.499 57.2 142.264 57.776C142.03 58.352 141.87 58.864 141.784 59.312C141.742 59.5253 141.71 59.728 141.688 59.92C141.667 60.0907 141.656 60.2507 141.656 60.4C141.656 60.9547 141.806 61.232 142.104 61.232C142.531 61.232 143.118 60.7627 143.864 59.824L143.992 59.664L144.44 59.952L144.312 60.144C143.438 61.424 142.574 62.064 141.72 62.064Z" fill="white"/>
</svg>
